<?xml version="1.0" encoding="utf-8"?>
<!-- Generator: Adobe Illustrator 22.1.0, SVG Export Plug-In . SVG Version: 6.00 Build 0)  -->
<svg version="1.1" xmlns="http://www.w3.org/2000/svg" xmlns:xlink="http://www.w3.org/1999/xlink" x="0px" y="0px"
	 viewBox="0 0 99 76" style="enable-background:new 0 0 99 76;" xml:space="preserve">
<style type="text/css">
	.st0{fill:none;stroke:#FFFFFF;stroke-width:2;stroke-miterlimit:10;}
	.st1{fill:#434345;}
	.st2{opacity:0.24;}
	.st3{clip-path:url(#SVGID_2_);}
	.st4{fill:none;stroke:#3CB4E5;stroke-width:0.75;stroke-miterlimit:10;}
	.st5{fill:#FFFFFF;}
	.st6{fill:#3CB4E5;}
	.st7{fill:#434444;}
	.st8{fill:none;stroke:#FFFFFF;stroke-miterlimit:10;}
	.st9{fill:#164273;}
	.st10{fill:#1AA2D0;}
	.st11{fill:#47B3DF;}
	.st12{fill:#47B3DF;stroke:#3CB4E5;stroke-width:0.25;stroke-miterlimit:10;}
	.st13{opacity:0.6;fill:#FFFFFF;}
	.st14{opacity:0.5;fill:#FFFFFF;}
	.st15{opacity:0.2;fill:#FFFFFF;}
	.st16{opacity:0.3;fill:#FFFFFF;}
	.st17{opacity:0.4;fill:#FFFFFF;}
	.st18{opacity:0.1;fill:#FFFFFF;}
	.st19{opacity:5.000000e-02;fill:#FFFFFF;}
	.st20{clip-path:url(#SVGID_4_);fill:url(#SVGID_5_);}
	.st21{fill:#59A8DD;}
	.st22{fill:#0BA4D2;}
	.st23{fill:#41B3E1;}
	.st24{clip-path:url(#SVGID_11_);fill:#3FB1FC;}
	.st25{clip-path:url(#SVGID_13_);}
	.st26{fill:none;stroke:#3CB4E5;stroke-width:0.5;stroke-miterlimit:10;}
	.st27{fill:#009FDC;}
	.st28{opacity:0.3;clip-path:url(#SVGID_15_);}
	.st29{opacity:0.3;}
	.st30{clip-path:url(#SVGID_17_);}
	.st31{opacity:0.19;}
	.st32{clip-path:url(#SVGID_21_);fill:url(#SVGID_22_);}
	.st33{fill:none;stroke:#41B3E1;stroke-width:2;stroke-miterlimit:10;}
	.st34{clip-path:url(#SVGID_26_);}
	.st35{fill:#1CA2D0;}
	.st36{fill:#FFFFFF;stroke:#3CB4E5;stroke-width:0.5;stroke-miterlimit:10;}
	.st37{fill:#FFFFFF;stroke:#3CB4E5;stroke-width:2;stroke-miterlimit:10;}
	.st38{clip-path:url(#SVGID_30_);}
	.st39{opacity:0.8;fill:#FFFFFF;}
	.st40{clip-path:url(#SVGID_32_);}
	.st41{opacity:0.8;}
	.st42{fill:none;stroke:#424245;stroke-width:2;stroke-miterlimit:10;}
	.st43{opacity:0.2;}
	.st44{clip-path:url(#SVGID_34_);}
	.st45{clip-path:url(#SVGID_36_);}
	.st46{clip-path:url(#SVGID_38_);}
	.st47{clip-path:url(#SVGID_40_);}
	.st48{clip-path:url(#SVGID_42_);}
	.st49{clip-path:url(#SVGID_44_);}
	.st50{clip-path:url(#SVGID_46_);}
	.st51{clip-path:url(#SVGID_48_);}
	.st52{clip-path:url(#SVGID_50_);}
	.st53{clip-path:url(#SVGID_52_);}
	.st54{clip-path:url(#SVGID_54_);}
	.st55{clip-path:url(#SVGID_56_);}
	.st56{clip-path:url(#SVGID_58_);}
	.st57{clip-path:url(#SVGID_60_);}
	.st58{clip-path:url(#SVGID_62_);}
	.st59{clip-path:url(#SVGID_64_);}
	.st60{clip-path:url(#SVGID_66_);}
	.st61{clip-path:url(#SVGID_68_);}
	.st62{clip-path:url(#SVGID_70_);}
	.st63{clip-path:url(#SVGID_72_);}
	.st64{clip-path:url(#SVGID_74_);}
	.st65{clip-path:url(#SVGID_76_);}
	.st66{clip-path:url(#SVGID_78_);}
	.st67{clip-path:url(#SVGID_80_);}
	.st68{clip-path:url(#SVGID_82_);}
	.st69{clip-path:url(#SVGID_84_);}
	.st70{clip-path:url(#SVGID_86_);}
	.st71{clip-path:url(#SVGID_88_);}
	.st72{clip-path:url(#SVGID_90_);}
	.st73{clip-path:url(#SVGID_92_);}
	.st74{clip-path:url(#SVGID_94_);}
	.st75{clip-path:url(#SVGID_96_);}
	.st76{clip-path:url(#SVGID_98_);}
	.st77{clip-path:url(#SVGID_100_);}
	.st78{clip-path:url(#SVGID_102_);}
	.st79{clip-path:url(#SVGID_104_);}
	.st80{clip-path:url(#SVGID_106_);}
	.st81{clip-path:url(#SVGID_108_);}
	.st82{clip-path:url(#SVGID_110_);}
	.st83{clip-path:url(#SVGID_112_);}
	.st84{clip-path:url(#SVGID_114_);}
	.st85{clip-path:url(#SVGID_116_);}
	.st86{clip-path:url(#SVGID_118_);}
	.st87{clip-path:url(#SVGID_120_);}
	.st88{clip-path:url(#SVGID_122_);}
	.st89{clip-path:url(#SVGID_124_);}
	.st90{clip-path:url(#SVGID_126_);}
	.st91{clip-path:url(#SVGID_128_);}
	.st92{clip-path:url(#SVGID_130_);}
	.st93{clip-path:url(#SVGID_132_);}
	.st94{clip-path:url(#SVGID_134_);}
	.st95{clip-path:url(#SVGID_136_);}
	.st96{clip-path:url(#SVGID_138_);}
	.st97{clip-path:url(#SVGID_140_);}
	.st98{clip-path:url(#SVGID_142_);}
	.st99{clip-path:url(#SVGID_144_);}
	.st100{clip-path:url(#SVGID_146_);}
	.st101{clip-path:url(#SVGID_148_);}
	.st102{clip-path:url(#SVGID_150_);}
	.st103{clip-path:url(#SVGID_152_);}
	.st104{clip-path:url(#SVGID_154_);}
	.st105{clip-path:url(#SVGID_156_);}
	.st106{clip-path:url(#SVGID_158_);}
	.st107{clip-path:url(#SVGID_160_);}
	.st108{clip-path:url(#SVGID_162_);}
	.st109{clip-path:url(#SVGID_164_);}
	.st110{clip-path:url(#SVGID_166_);}
	.st111{clip-path:url(#SVGID_168_);}
	.st112{clip-path:url(#SVGID_170_);}
	.st113{clip-path:url(#SVGID_172_);}
	.st114{clip-path:url(#SVGID_174_);}
	.st115{clip-path:url(#SVGID_176_);}
	.st116{clip-path:url(#SVGID_178_);}
	.st117{clip-path:url(#SVGID_180_);}
	.st118{clip-path:url(#SVGID_182_);}
	.st119{clip-path:url(#SVGID_184_);}
	.st120{clip-path:url(#SVGID_186_);}
	.st121{clip-path:url(#SVGID_188_);}
	.st122{clip-path:url(#SVGID_190_);}
	.st123{clip-path:url(#SVGID_192_);}
	.st124{clip-path:url(#SVGID_194_);}
	.st125{clip-path:url(#SVGID_196_);}
	.st126{clip-path:url(#SVGID_198_);}
	.st127{clip-path:url(#SVGID_200_);}
	.st128{clip-path:url(#SVGID_202_);}
	.st129{clip-path:url(#SVGID_204_);}
	.st130{clip-path:url(#SVGID_206_);}
	.st131{clip-path:url(#SVGID_208_);}
	.st132{clip-path:url(#SVGID_210_);}
	.st133{clip-path:url(#SVGID_212_);}
	.st134{clip-path:url(#SVGID_214_);}
	.st135{clip-path:url(#SVGID_216_);}
	.st136{clip-path:url(#SVGID_218_);}
	.st137{clip-path:url(#SVGID_220_);}
	.st138{clip-path:url(#SVGID_222_);}
	.st139{clip-path:url(#SVGID_224_);}
	.st140{clip-path:url(#SVGID_226_);}
	.st141{clip-path:url(#SVGID_228_);}
	.st142{clip-path:url(#SVGID_230_);}
	.st143{clip-path:url(#SVGID_232_);}
	.st144{clip-path:url(#SVGID_234_);}
	.st145{clip-path:url(#SVGID_236_);}
	.st146{clip-path:url(#SVGID_238_);}
	.st147{clip-path:url(#SVGID_240_);}
	.st148{clip-path:url(#SVGID_242_);}
	.st149{clip-path:url(#SVGID_244_);}
	.st150{clip-path:url(#SVGID_246_);}
	.st151{clip-path:url(#SVGID_248_);}
	.st152{clip-path:url(#SVGID_250_);}
	.st153{clip-path:url(#SVGID_252_);}
	.st154{clip-path:url(#SVGID_254_);}
	.st155{clip-path:url(#SVGID_256_);}
	.st156{fill:none;stroke:#000000;stroke-width:0.25;stroke-miterlimit:10;}
	.st157{opacity:0.3;fill:none;stroke:#000000;stroke-width:0.25;stroke-miterlimit:10;}
	.st158{opacity:0.99;fill:none;stroke:#000000;stroke-width:0.25;stroke-miterlimit:10;}
	.st159{fill:#676E9F;}
	.st160{fill:#A1D683;}
	.st161{fill:#009ABF;}
	.st162{fill:#3BD4AE;}
	.st163{fill:url(#SVGID_261_);}
	.st164{clip-path:url(#SVGID_263_);}
	.st165{clip-path:url(#SVGID_265_);}
	.st166{clip-path:url(#SVGID_267_);}
	.st167{clip-path:url(#SVGID_269_);}
	.st168{clip-path:url(#SVGID_271_);}
	.st169{clip-path:url(#SVGID_273_);}
	.st170{clip-path:url(#SVGID_275_);}
	.st171{clip-path:url(#SVGID_277_);}
	.st172{clip-path:url(#SVGID_279_);}
	.st173{clip-path:url(#SVGID_281_);}
	.st174{clip-path:url(#SVGID_283_);}
	.st175{clip-path:url(#SVGID_285_);}
	.st176{clip-path:url(#SVGID_287_);}
	.st177{clip-path:url(#SVGID_289_);}
	.st178{clip-path:url(#SVGID_291_);}
	.st179{clip-path:url(#SVGID_293_);}
	.st180{clip-path:url(#SVGID_295_);}
	.st181{clip-path:url(#SVGID_297_);}
	.st182{clip-path:url(#SVGID_299_);}
	.st183{clip-path:url(#SVGID_301_);}
	.st184{clip-path:url(#SVGID_303_);}
	.st185{clip-path:url(#SVGID_305_);}
	.st186{clip-path:url(#SVGID_307_);}
	.st187{clip-path:url(#SVGID_309_);}
	.st188{clip-path:url(#SVGID_311_);}
	.st189{clip-path:url(#SVGID_313_);}
	.st190{clip-path:url(#SVGID_315_);}
	.st191{clip-path:url(#SVGID_317_);}
	.st192{clip-path:url(#SVGID_319_);}
	.st193{clip-path:url(#SVGID_321_);}
	.st194{clip-path:url(#SVGID_323_);}
	.st195{clip-path:url(#SVGID_325_);}
	.st196{clip-path:url(#SVGID_327_);}
	.st197{clip-path:url(#SVGID_329_);}
	.st198{clip-path:url(#SVGID_331_);}
	.st199{clip-path:url(#SVGID_333_);}
	.st200{clip-path:url(#SVGID_335_);}
	.st201{clip-path:url(#SVGID_337_);}
	.st202{clip-path:url(#SVGID_339_);}
	.st203{clip-path:url(#SVGID_341_);}
	.st204{clip-path:url(#SVGID_343_);}
	.st205{clip-path:url(#SVGID_345_);}
	.st206{clip-path:url(#SVGID_347_);}
	.st207{clip-path:url(#SVGID_349_);}
	.st208{clip-path:url(#SVGID_351_);}
	.st209{clip-path:url(#SVGID_353_);}
	.st210{clip-path:url(#SVGID_355_);}
	.st211{clip-path:url(#SVGID_357_);}
	.st212{clip-path:url(#SVGID_359_);}
	.st213{clip-path:url(#SVGID_361_);}
	.st214{clip-path:url(#SVGID_363_);}
	.st215{clip-path:url(#SVGID_365_);}
	.st216{clip-path:url(#SVGID_367_);}
	.st217{clip-path:url(#SVGID_369_);}
	.st218{clip-path:url(#SVGID_371_);}
	.st219{clip-path:url(#SVGID_373_);}
	.st220{clip-path:url(#SVGID_375_);}
	.st221{clip-path:url(#SVGID_377_);}
	.st222{clip-path:url(#SVGID_379_);}
	.st223{clip-path:url(#SVGID_381_);}
	.st224{clip-path:url(#SVGID_383_);}
	.st225{clip-path:url(#SVGID_385_);}
	.st226{clip-path:url(#SVGID_387_);}
	.st227{clip-path:url(#SVGID_389_);}
	.st228{clip-path:url(#SVGID_391_);}
	.st229{clip-path:url(#SVGID_393_);}
	.st230{clip-path:url(#SVGID_395_);}
	.st231{clip-path:url(#SVGID_397_);}
	.st232{clip-path:url(#SVGID_399_);}
	.st233{clip-path:url(#SVGID_401_);}
	.st234{clip-path:url(#SVGID_403_);}
	.st235{clip-path:url(#SVGID_405_);}
	.st236{clip-path:url(#SVGID_407_);}
	.st237{clip-path:url(#SVGID_409_);}
	.st238{clip-path:url(#SVGID_411_);}
	.st239{clip-path:url(#SVGID_413_);}
	.st240{clip-path:url(#SVGID_415_);}
	.st241{clip-path:url(#SVGID_417_);}
	.st242{clip-path:url(#SVGID_419_);}
	.st243{clip-path:url(#SVGID_421_);}
	.st244{clip-path:url(#SVGID_423_);}
	.st245{clip-path:url(#SVGID_425_);}
	.st246{clip-path:url(#SVGID_427_);}
	.st247{clip-path:url(#SVGID_429_);}
	.st248{clip-path:url(#SVGID_431_);}
	.st249{clip-path:url(#SVGID_433_);}
	.st250{clip-path:url(#SVGID_435_);}
	.st251{clip-path:url(#SVGID_437_);}
	.st252{clip-path:url(#SVGID_439_);}
	.st253{clip-path:url(#SVGID_441_);}
	.st254{clip-path:url(#SVGID_443_);}
	.st255{clip-path:url(#SVGID_445_);}
	.st256{clip-path:url(#SVGID_447_);}
	.st257{clip-path:url(#SVGID_449_);}
	.st258{clip-path:url(#SVGID_451_);}
	.st259{clip-path:url(#SVGID_453_);}
	.st260{clip-path:url(#SVGID_455_);}
	.st261{clip-path:url(#SVGID_457_);}
	.st262{clip-path:url(#SVGID_459_);}
	.st263{clip-path:url(#SVGID_461_);}
	.st264{clip-path:url(#SVGID_463_);}
	.st265{clip-path:url(#SVGID_465_);}
	.st266{clip-path:url(#SVGID_467_);}
	.st267{clip-path:url(#SVGID_469_);}
	.st268{clip-path:url(#SVGID_471_);}
	.st269{clip-path:url(#SVGID_473_);}
	.st270{clip-path:url(#SVGID_475_);}
	.st271{clip-path:url(#SVGID_477_);}
	.st272{clip-path:url(#SVGID_479_);}
	.st273{clip-path:url(#SVGID_481_);}
	.st274{clip-path:url(#SVGID_483_);}
	.st275{clip-path:url(#SVGID_485_);}
	.st276{clip-path:url(#SVGID_487_);fill:#3FB1FC;}
	.st277{clip-path:url(#SVGID_491_);}
	.st278{fill:#0E7FCE;}
	.st279{fill:#035AB9;}
	.st280{fill:#0140A6;}
	.st281{fill:url(#SVGID_496_);}
	.st282{fill:#231F20;}
</style>
<g id="Layer_5">
</g>
<g id="Layer_1">
	<g id="Layer_2">
	</g>
	<g>
		<g>
			<path class="st1" d="M23.6,60.2C23.4,60.1,23.2,60,23,60l-12.1,0c-0.2,0-0.4,0.1-0.6,0.2c-0.2,0.2-0.2,0.4-0.2,0.6
				c0,0.2,0.1,0.4,0.2,0.6c0.2,0.2,0.4,0.2,0.6,0.2l5.8,0c-0.2,0.3-0.3,0.7-0.4,1.1c-0.1,0.4-0.1,0.7-0.1,1.1l0,3
				c0,0.2,0.1,0.4,0.2,0.6c0.2,0.2,0.4,0.2,0.6,0.2c0.2,0,0.4-0.1,0.6-0.2c0.2-0.2,0.2-0.4,0.2-0.6l0-3c0-0.2,0-0.4,0.1-0.7
				c0-0.2,0.1-0.5,0.3-0.7c0.1-0.2,0.3-0.4,0.5-0.5c0.2-0.2,0.5-0.2,0.9-0.3l3.5,0c0.2,0,0.4-0.1,0.5-0.3c0.1-0.2,0.2-0.4,0.2-0.6
				C23.8,60.6,23.7,60.4,23.6,60.2z"/>
			<path class="st1" d="M59.5,62.5c-0.1-0.4-0.3-0.9-0.6-1.2c-0.3-0.4-0.6-0.7-1-0.9c-0.4-0.2-0.8-0.4-1.3-0.4l-8,0
				c-0.5,0-1,0.1-1.4,0.4c-0.4,0.2-0.7,0.5-1,0.9c-0.3,0.4-0.5,0.8-0.6,1.2c-0.1,0.5-0.2,0.9-0.2,1.3c0,0.4,0.1,0.9,0.2,1.3
				c0.1,0.4,0.3,0.8,0.6,1.2c0.3,0.4,0.6,0.7,1,0.9c0.4,0.2,0.8,0.4,1.3,0.4l2.1,0l0,0c0.2,0,0.4-0.1,0.6-0.3
				c0.2-0.2,0.2-0.4,0.2-0.6c0-0.2-0.1-0.4-0.2-0.6c-0.2-0.2-0.4-0.2-0.6-0.2l-1.5,0c-0.4,0-0.7-0.1-1-0.2c-0.3-0.1-0.5-0.3-0.6-0.5
				c-0.1-0.2-0.2-0.4-0.3-0.7C47,64.3,47,64,47,63.8c0-0.2,0-0.4,0.1-0.7c0.1-0.3,0.2-0.5,0.3-0.7c0.1-0.2,0.3-0.4,0.6-0.5
				c0.3-0.1,0.6-0.2,1-0.2l7.1,0c0.4,0,0.7,0.1,1,0.2c0.3,0.1,0.5,0.3,0.6,0.5c0.1,0.2,0.2,0.4,0.3,0.7c0.1,0.3,0.1,0.5,0.1,0.7
				c0,0.2,0,0.4-0.1,0.7c-0.1,0.3-0.2,0.5-0.3,0.7c-0.1,0.2-0.4,0.4-0.6,0.5c-0.3,0.1-0.6,0.2-1,0.2l-1.3,0c-0.1,0-0.3-0.1-0.4-0.2
				c-0.1-0.1-0.1-0.3-0.2-0.4l0-0.7c0-0.2-0.1-0.4-0.3-0.6c-0.2-0.2-0.4-0.2-0.6-0.2c-0.2,0-0.4,0.1-0.6,0.2
				c-0.2,0.2-0.2,0.4-0.2,0.6l0,0.9c0,0.3,0.1,0.6,0.2,0.8c0.1,0.3,0.3,0.5,0.5,0.7c0.2,0.2,0.4,0.3,0.7,0.5
				c0.3,0.1,0.5,0.2,0.8,0.2l1.8,0c0.5,0,1-0.1,1.4-0.4c0.4-0.2,0.7-0.5,1-0.9c0.3-0.4,0.5-0.8,0.6-1.2c0.1-0.5,0.2-0.9,0.2-1.3
				C59.7,63.4,59.6,62.9,59.5,62.5z"/>
			<path class="st1" d="M73.2,66.6c0-0.1-0.1-0.2-0.2-0.3l-4.2-5.5c-0.2-0.3-0.4-0.5-0.8-0.6c-0.3-0.1-0.6-0.2-1-0.2
				c-0.4,0-0.7,0.1-1,0.2c-0.3,0.2-0.6,0.4-0.8,0.6l-4.1,5.6c-0.1,0.1-0.2,0.3-0.2,0.5c0,0.2,0.1,0.4,0.2,0.6
				c0.2,0.2,0.4,0.2,0.6,0.2c0.2,0,0.5-0.1,0.6-0.3l4-5.3c0.1-0.1,0.2-0.2,0.3-0.3c0.1-0.1,0.2-0.2,0.4-0.2c0.1,0,0.2,0.1,0.4,0.2
				c0.1,0.1,0.2,0.2,0.3,0.3l4,5.3c0.2,0.2,0.4,0.3,0.6,0.3c0.2,0,0.4-0.1,0.6-0.2c0.2-0.2,0.2-0.4,0.2-0.6
				C73.2,66.8,73.2,66.7,73.2,66.6z"/>
			<path class="st1" d="M89,60.8c0-0.2-0.1-0.4-0.2-0.6c-0.2-0.2-0.4-0.2-0.6-0.2c-0.1,0-0.2,0-0.3,0.1c0,0,0,0,0,0
				c0,0-0.1,0-0.1,0.1c0,0-0.1,0.1-0.1,0.1c-0.2,0.2-0.3,0.4-0.3,0.6v1.5l0,0.6L82,63l-5.2,0v-2.2c0-0.2-0.1-0.4-0.3-0.6
				C76.4,60.1,76.2,60,76,60c-0.2,0-0.4,0.1-0.6,0.2c-0.2,0.2-0.2,0.4-0.3,0.6l0,6.1c0,0.2,0.1,0.4,0.2,0.6c0.2,0.2,0.4,0.2,0.6,0.2
				c0.2,0,0.4-0.1,0.6-0.2c0.2-0.2,0.3-0.4,0.3-0.6l0-2.2l5.2,0l5.2,0l0,2.1c0,0.1,0,0.2,0.1,0.4c0,0,0,0,0,0c0,0,0,0.1,0,0.1
				c0,0.1,0.1,0.1,0.1,0.2c0.2,0.2,0.4,0.2,0.6,0.2c0.2,0,0.4-0.1,0.6-0.2c0.2-0.2,0.2-0.4,0.2-0.6l0-5.8L89,60.8z"/>
			<path class="st1" d="M43,60.2c-0.2-0.2-0.4-0.2-0.6-0.2c-0.2,0-0.4,0.1-0.6,0.2c-0.2,0.2-0.2,0.4-0.3,0.6l0,6.1
				c0,0.2,0.1,0.4,0.2,0.6c0.2,0.2,0.4,0.2,0.6,0.2c0.2,0,0.4-0.1,0.6-0.2c0.2-0.2,0.3-0.4,0.3-0.6v-6.1
				C43.3,60.6,43.2,60.4,43,60.2z"/>
			<path class="st1" d="M39.4,60.8c0-0.2-0.1-0.4-0.2-0.6C39,60.1,38.8,60,38.6,60c-0.1,0-0.2,0-0.3,0.1c0,0,0,0,0,0
				c0,0-0.1,0-0.1,0.1c0,0-0.1,0.1-0.1,0.1c-0.2,0.2-0.3,0.4-0.3,0.6v1.5l0,0.6l-5.2,0l-5.2,0v-2.2c0-0.2-0.1-0.4-0.3-0.6
				c-0.2-0.2-0.4-0.2-0.6-0.2c-0.2,0-0.4,0.1-0.6,0.2c-0.2,0.2-0.2,0.4-0.3,0.6l0,6.1c0,0.2,0.1,0.4,0.2,0.6
				c0.2,0.2,0.4,0.2,0.6,0.2c0.2,0,0.4-0.1,0.6-0.2c0.2-0.2,0.3-0.4,0.3-0.6l0-2.2l5.2,0l5.2,0l0,2.1c0,0.1,0,0.2,0.1,0.4
				c0,0,0,0,0,0c0,0,0,0.1,0,0.1c0,0.1,0.1,0.1,0.1,0.2c0.2,0.2,0.4,0.2,0.6,0.2c0.2,0,0.4-0.1,0.6-0.2c0.2-0.2,0.2-0.4,0.2-0.6
				l0-5.8L39.4,60.8z"/>
		</g>
		<g>
			<path class="st6" d="M63,23.4c-1.4-0.4-2.7,0.7-2.7,2.1v3.8c0,0.9,0.6,1.6,1.4,1.9c2.9,1.1,4.9,3.8,4.9,7c0,4.1-3.4,7.5-7.5,7.5
				c0,0,0,0-0.1,0c-4.1,0-7.4-3.4-7.4-7.5c0-1.4,0.4-2.8,1.1-3.9c0.9-1.4,2.2-2.5,3.8-3.1c0.8-0.3,1.4-1.1,1.4-1.9v-3.8
				c0-1.4-1.4-2.5-2.7-2.1c-6.6,1.7-11.4,7.7-11.4,14.9c0,0.2,0,0.5,0,0.7C44,47.1,50.7,53.6,59,53.7c0,0,0,0,0.1,0
				c8.5,0,15.4-6.9,15.4-15.4C74.4,31.1,69.5,25.2,63,23.4z"/>
			<path class="st1" d="M77.9,13.7l-1.3,0c-0.8,0-1.4,0.3-2,0.8c-0.5,0.5-0.8,1.2-0.8,2c0,0.8,0.3,1.4,0.8,2c0.5,0.5,1.2,0.8,2,0.8
				l1.3,0c0.8,0,1.4-0.3,2-0.8c0.5-0.5,0.8-1.2,0.8-2c0-0.8-0.3-1.4-0.8-2C79.3,14,78.6,13.7,77.9,13.7z"/>
			<path class="st1" d="M88.2,14.5c-0.5-0.5-1.2-0.8-2-0.8l-1.3,0c-0.8,0-1.4,0.3-2,0.8c-0.5,0.5-0.8,1.2-0.8,2c0,0.8,0.3,1.4,0.8,2
				c0.5,0.5,1.2,0.8,2,0.8l1.3,0c0.8,0,1.4-0.3,2-0.8c0.5-0.5,0.8-1.2,0.8-2C89,15.7,88.7,15,88.2,14.5z"/>
			<path class="st1" d="M44.5,48.4L44.5,48.4l-10.3-0.1v-25H21.9c-7.3,0.1-11.9,5.2-11.8,15.8c0.1,11,7.1,14.7,12.1,14.6l28.2,0
				C48.1,52.5,46.1,50.6,44.5,48.4z M22.3,48.4c-4.7,0-6.5-5.4-6.5-9.3c0-4,1.1-10.6,6.3-10.7l6.6-0.1l0,20L22.3,48.4z"/>
			<path class="st1" d="M89,26.1c0-0.8-0.3-1.4-0.8-2c-0.5-0.5-1.1-0.8-1.9-0.8c-0.8,0-1.4,0.3-2,0.8c-0.5,0.5-0.7,1.2-0.6,2l0,6.3
				v0l0,8.2c0,4.9-2.4,7.7-7.6,7.8l-2.8,0c-1.5,2.2-3.5,4.1-5.9,5.4h8.9l1.3-0.1C84.8,53,89.1,48.2,89,40.8l0-8.4l0-2.6L89,26.1z"/>
			<path class="st1" d="M84,8.4c-0.5-0.5-1.2-0.8-2-0.8l-1.3,0c-0.8,0-1.4,0.3-2,0.8c-0.5,0.5-0.8,1.2-0.8,2c0,0.8,0.3,1.4,0.8,2
				c0.5,0.5,1.2,0.8,2,0.8l1.3,0c0.8,0,1.4-0.3,2-0.8c0.5-0.5,0.8-1.2,0.8-2C84.8,9.5,84.5,8.9,84,8.4z"/>
			<path class="st1" d="M55.5,13.7l-1.3,0c-0.8,0-1.4,0.3-2,0.8c-0.5,0.5-0.8,1.2-0.8,2c0,0.8,0.3,1.4,0.8,2c0.5,0.5,1.2,0.8,2,0.8
				l1.3,0c0.8,0,1.4-0.3,2-0.8c0.5-0.5,0.8-1.2,0.8-2c0-0.8-0.3-1.4-0.8-2C56.9,14,56.2,13.7,55.5,13.7z"/>
			<path class="st1" d="M65.7,14.5c-0.5-0.5-1.2-0.8-2-0.8l-1.3,0c-0.8,0-1.4,0.3-2,0.8c-0.5,0.5-0.8,1.2-0.8,2c0,0.8,0.3,1.4,0.8,2
				c0.5,0.5,1.2,0.8,2,0.8l1.3,0c0.8,0,1.4-0.3,2-0.8c0.5-0.5,0.8-1.2,0.8-2C66.6,15.7,66.3,15,65.7,14.5z"/>
			<path class="st1" d="M23,13.7l-1.3,0c-0.8,0-1.4,0.3-2,0.8c-0.5,0.5-0.8,1.2-0.8,2c0,0.8,0.3,1.4,0.8,2c0.5,0.5,1.2,0.8,2,0.8
				l1.3,0c0.8,0,1.4-0.3,2-0.8c0.5-0.5,0.8-1.2,0.8-2c0-0.8-0.3-1.4-0.8-2C24.4,14,23.8,13.7,23,13.7z"/>
			<path class="st1" d="M33.3,14.5c-0.5-0.5-1.2-0.8-2-0.8l-1.3,0c-0.8,0-1.4,0.3-2,0.8c-0.5,0.5-0.8,1.2-0.8,2c0,0.8,0.3,1.4,0.8,2
				c0.5,0.5,1.2,0.8,2,0.8l1.3,0c0.8,0,1.4-0.3,2-0.8c0.5-0.5,0.8-1.2,0.8-2C34.1,15.7,33.8,15,33.3,14.5z"/>
		</g>
	</g>
</g>
<g id="Layer_4">
</g>
<g id="Layer_3">
</g>
<g id="Layer_6">
</g>
</svg>
